<?xml version="1.0" encoding="utf-8"?>
<!-- Generator: Adobe Illustrator 19.0.0, SVG Export Plug-In . SVG Version: 6.00 Build 0)  -->
<svg version="1.1"
	 id="Layer_1" xmlns:dc="http://purl.org/dc/elements/1.1/" xmlns:cc="http://creativecommons.org/ns#" xmlns:rdf="http://www.w3.org/1999/02/22-rdf-syntax-ns#" xmlns:svg="http://www.w3.org/2000/svg" xmlns:sodipodi="http://sodipodi.sourceforge.net/DTD/sodipodi-0.dtd" xmlns:inkscape="http://www.inkscape.org/namespaces/inkscape"
	 xmlns="http://www.w3.org/2000/svg" xmlns:xlink="http://www.w3.org/1999/xlink" x="0px" y="0px" viewBox="-255 334 100 125"
	 style="enable-background:new -255 334 100 125;" xml:space="preserve">
<style type="text/css">
	.st0{fill:#FFFFFF;}
</style>
<g transform="translate(0,-952.36218)">
	<path class="st0" d="M-204.7,1306.9c-0.7,0-1.3,0.3-1.8,0.7l-31,27c-1.2,1-1.3,3-0.3,4.2c1,1.2,3.1,1.3,4.2,0.3l29-25.2l28,25.2
		c1.2,1.1,3.2,1,4.3-0.2c1.1-1.2,0.9-3.3-0.3-4.3l-30-27C-203.1,1307.1-203.9,1306.8-204.7,1306.9z M-183.5,1334.1v25.7h-11
		c0-5.3,0-10.7,0-16c-7.7,0-13.8,0-20.8,0c-0.1,5.3-0.1,10.7-0.2,16h-11v-25.6l-6,5.2c0,8.8,0,17.5,0,26.3c7.9,0,16.1,0,22.9,0
		c0.1-5.3,0.1-10.7,0.2-16h8.9c0,5.3,0,10.7,0,16c7.9,0,16.2,0,23,0c0-8.8,0-17.5,0-26.3C-179.5,1337.8-181.5,1335.9-183.5,1334.1z"
		/>
</g>
</svg>
