<?xml version="1.0" encoding="UTF-8"?>
<svg width="512px" height="512px" viewBox="0 0 512 512" version="1.1" xmlns="http://www.w3.org/2000/svg" xmlns:xlink="http://www.w3.org/1999/xlink">
    <!-- Generator: Sketch 48.2 (47327) - http://www.bohemiancoding.com/sketch -->
    <title>Icon</title>
    <desc>Created with Sketch.</desc>
    <defs>
        <linearGradient x1="50%" y1="0%" x2="50%" y2="100%" id="linearGradient-1">
            <stop stop-color="#FF8585" offset="0%"></stop>
            <stop stop-color="#FF117E" offset="100%"></stop>
        </linearGradient>
        <path d="M0,42.2680884 C62.921919,27.0171343 110.806422,19.3916573 143.653509,19.3916573 C164.951662,19.3916573 201.796403,62.3134423 278.403509,68.2750915 C306.097002,70.4302296 358.073935,47.789933 434.334308,0.354201858 L447.276803,248.520904 C371.791602,288.437933 317.563207,307.056786 284.591618,304.377463 C235.558202,300.392932 216.891609,268.864255 183.22807,268.864255 C115.60992,268.864255 63.2168075,280.701991 26.0487329,304.377463 L0,42.2680884 Z" id="path-2"></path>
        <rect id="path-3" x="31" y="35" width="14" height="449"></rect>
    </defs>
    <g id="Page-1" stroke="none" stroke-width="1" fill="none" fill-rule="evenodd">
        <g id="iOS-App-Icon-Template" transform="translate(-1681.000000, -325.000000)"></g>
        <g id="Icon">
            <rect id="Background" fill="url(#linearGradient-1)" x="0" y="0" width="512" height="512"></rect>
            <g id="Group-2" transform="translate(18.000000, 92.000000)">
                <g id="Group" transform="translate(14.000000, 0.000000)">
                    <g id="Rectangle-2">
                        <use fill="#FFFFFF" fill-rule="evenodd" xlink:href="#path-2"></use>
                        <path stroke="#000000" stroke-width="10" d="M5.40630227,46.1085689 L30.2414043,296.006062 C67.7630837,274.531002 118.766189,263.864255 183.22807,263.864255 C194.132365,263.864255 203.871176,266.729173 215.577496,272.597554 C218.255569,273.940072 220.984806,275.403665 224.56033,277.391381 C225.040744,277.658455 231.639132,281.355885 233.620867,282.44649 C252.475397,292.822674 266.336767,297.877564 284.996591,299.393891 C316.327534,301.939892 368.903843,284.056447 442.117081,245.588588 L429.780809,9.04594898 C356.504766,54.028362 306.262036,75.4581901 278.015576,73.2600196 C246.40795,70.8002794 219.802958,62.4004708 192.926168,48.6249557 C184.499836,44.3060967 160.123234,30.3485413 162.242619,31.5160413 C153.181923,26.5247999 147.703789,24.3916573 143.653509,24.3916573 C112.018045,24.3916573 65.892615,31.6228965 5.40632318,46.1085639 Z"></path>
                    </g>
                    <path d="M4.80311891,46.2537538 L29.6920078,302.252252" id="Line" stroke="#FFFFFF" stroke-width="12" stroke-linecap="square"></path>
                </g>
                <g id="Rectangle" transform="translate(38.000000, 259.500000) rotate(-5.000000) translate(-38.000000, -259.500000) ">
                    <use fill="#FFFFFF" fill-rule="evenodd" xlink:href="#path-3"></use>
                    <rect stroke="#000000" stroke-width="5" x="33.5" y="37.5" width="9" height="444"></rect>
                </g>
                <ellipse id="Oval" stroke="#000000" stroke-width="8" fill="#FFFFFF" cx="19" cy="20.5" rx="19" ry="20.5"></ellipse>
                <text id="?" transform="translate(65.000000, 84.000000) rotate(-9.000000) translate(-65.000000, -84.000000) " font-family="AmericanTypewriter, American Typewriter" font-size="100" font-weight="normal" fill="#000000">
                    <tspan x="35" y="123">?</tspan>
                </text>
                <text id="?" transform="translate(419.000000, 208.000000) rotate(-14.000000) translate(-419.000000, -208.000000) " font-family="AmericanTypewriter, American Typewriter" font-size="100" font-weight="normal" fill="#000000">
                    <tspan x="389" y="247">?</tspan>
                </text>
                <text id="?" transform="translate(247.500000, 164.000000) rotate(-12.000000) translate(-247.500000, -164.000000) " font-family="AmericanTypewriter, American Typewriter" font-size="250" font-weight="normal" fill="#000000">
                    <tspan x="182" y="266">?</tspan>
                </text>
                <g id="Flag---Pole"></g>
            </g>
            <g id="Smooth-Corners" fill="#242C33">
                <path d="M146.141456,-5.90428975e-15 C95.3248882,3.43056238e-15 76.8975727,5.29105984 58.3197949,15.2265641 C39.7420171,25.1620684 25.1620684,39.7420171 15.2265641,58.3197949 C5.29105984,76.8975727 -2.28704159e-15,95.3248882 3.93619317e-15,146.141456 L0,0 L146.141456,0 Z M365.858544,0 L512,0 L512,146.141456 C512,95.3248882 506.70894,76.8975727 496.773436,58.3197949 C486.837932,39.7420171 472.257983,25.1620684 453.680205,15.2265641 C435.102427,5.29105984 416.675112,-3.43056238e-15 365.858544,5.90428975e-15 Z M512,365.858544 L512,512 L365.858544,512 C416.675112,512 435.102427,506.70894 453.680205,496.773436 C472.257983,486.837932 486.837932,472.257983 496.773436,453.680205 C506.70894,435.102427 512,416.675112 512,365.858544 Z M146.141456,512 L0,512 L0,365.858544 C2.28704159e-15,416.675112 5.29105984,435.102427 15.2265641,453.680205 C25.1620684,472.257983 39.7420171,486.837932 58.3197949,496.773436 C76.8975727,506.70894 95.3248882,512 146.141456,512 Z"></path>
            </g>
        </g>
    </g>
</svg>